/* XPM */
static char *_648667689302[] = {
/* columns rows colors chars-per-pixel */
"64 64 246 2 ",
"   c #040203",
".  c #0A0708",
"X  c #0C0B0B",
"o  c #0D0E0F",
"O  c #190C05",
"+  c #130D0C",
"@  c #161603",
"#  c #1C1503",
"$  c #1C1904",
"%  c #14120C",
"&  c #1B140B",
"*  c #1D1B0A",
"=  c #140E13",
"-  c #0C1214",
";  c #141313",
":  c #1B1513",
">  c #1C1A15",
",  c #161718",
"<  c #1C1C1B",
"1  c #270807",
"2  c #380808",
"3  c #211504",
"4  c #221A05",
"5  c #241709",
"6  c #221B0C",
"7  c #221A13",
"8  c #281816",
"9  c #231C1C",
"0  c #371013",
"q  c #361916",
"w  c #1B270E",
"e  c #1D2019",
"r  c #2A210F",
"t  c #272315",
"y  c #23211D",
"u  c #2B231D",
"i  c #33231B",
"p  c #37271C",
"a  c #1C1B22",
"s  c #231F21",
"d  c #2B1E22",
"f  c #331E23",
"g  c #1C2324",
"h  c #242424",
"j  c #2A2424",
"k  c #282A25",
"l  c #24262A",
"z  c #2B2629",
"x  c #262A2B",
"c  c #2B2B2B",
"v  c #342A24",
"b  c #3B2B24",
"n  c #392826",
"m  c #322D2D",
"M  c #2B312D",
"N  c #32312D",
"B  c #3B342B",
"V  c #232930",
"C  c #2D2E31",
"Z  c #352E32",
"A  c #2D3233",
"S  c #293638",
"D  c #343333",
"F  c #3B3534",
"G  c #3B3A35",
"H  c #363738",
"J  c #3C353A",
"K  c #353A3B",
"L  c #3C3C3C",
"P  c #470808",
"I  c #580808",
"U  c #50100D",
"Y  c #481716",
"T  c #571617",
"R  c #670506",
"E  c #630C0C",
"W  c #780705",
"Q  c #690F10",
"!  c #651313",
"~  c #681818",
"^  c #791717",
"/  c #44251B",
"(  c #5B201D",
")  c #6F261D",
"_  c #462B25",
"`  c #572929",
"'  c #47362A",
"]  c #58362E",
"[  c #473936",
"{  c #423D3C",
"}  c #543C34",
"|  c #6D332C",
" . c #39413B",
".. c #3D423D",
"X. c #42413E",
"o. c #4C443D",
"O. c #57443A",
"+. c #684838",
"@. c #754936",
"#. c #363D41",
"$. c #3D3E42",
"%. c #423E42",
"&. c #493F42",
"*. c #364544",
"=. c #3E4241",
"-. c #434343",
";. c #4A4545",
":. c #4A4945",
">. c #474749",
",. c #4C4C4B",
"<. c #584946",
"1. c #524D4C",
"2. c #4B514E",
"3. c #58524A",
"4. c #4D4D52",
"5. c #544D51",
"6. c #4B5251",
"7. c #545353",
"8. c #5B5454",
"9. c #585958",
"0. c #5C5B5B",
"q. c #654C44",
"w. c #664C4C",
"e. c #665548",
"r. c #775949",
"t. c #675955",
"y. c #635C5D",
"u. c #765A53",
"i. c #5A635A",
"p. c #68615A",
"a. c #796559",
"s. c #5A5E62",
"d. c #675E62",
"f. c #755E63",
"g. c #5E6263",
"h. c #58766C",
"j. c #646464",
"k. c #676767",
"l. c #6A6966",
"z. c #6C6B6B",
"x. c #766866",
"c. c #736D6C",
"v. c #6D726D",
"b. c #74736D",
"n. c #6C6D72",
"m. c #736E71",
"M. c #6E7572",
"N. c #747373",
"B. c #7B7475",
"V. c #787978",
"C. c #7C7B7B",
"Z. c #890605",
"A. c #8D1312",
"S. c #B31715",
"D. c #D0090B",
"F. c #E5080B",
"G. c #D51921",
"H. c #875A4A",
"J. c #86685C",
"K. c #906954",
"L. c #896C64",
"P. c #8A7568",
"I. c #967869",
"U. c #877A78",
"Y. c #817D7D",
"T. c #957972",
"R. c #A27664",
"E. c #C25A44",
"W. c #76847B",
"Q. c #928168",
"!. c #82817C",
"~. c #9A8376",
"^. c #AF8C76",
"/. c #A68678",
"(. c #797B83",
"). c #847E81",
"_. c #7F8383",
"`. c #848383",
"'. c #888786",
"]. c #8C8C8C",
"[. c #92898A",
"{. c #8F908F",
"}. c #93918F",
"|. c #949394",
" X c #989897",
".X c #9C9C9C",
"XX c #AE9288",
"oX c #B79787",
"OX c #9EA09F",
"+X c #B1A48E",
"@X c #A5A49E",
"#X c #9F9EA1",
"$X c #A19FA0",
"%X c #9FA1A0",
"&X c #A5A4A4",
"*X c #A8A7A7",
"=X c #ACABAA",
"-X c #AEB0B0",
";X c #B4B4B3",
":X c #B8B7B6",
">X c #BCBCBB",
",X c #C39986",
"<X c #D69787",
"1X c #C6A795",
"2X c #CEAB95",
"3X c #D3AD9B",
"4X c #D6B7A5",
"5X c #C8B9B0",
"6X c #E2BDAD",
"7X c #C5C3BF",
"8X c #BBBAC2",
"9X c #C6BEC2",
"0X c #BEC7C9",
"qX c #C4C3C3",
"wX c #CBCAC6",
"eX c #C8C8C8",
"rX c #CCCCCC",
"tX c #D6CBC9",
"yX c #D1CCCD",
"uX c #C6D3C9",
"iX c #CDD1CD",
"pX c #D3D2CD",
"aX c #C6C9D1",
"sX c #CCCDD2",
"dX c #D2CED1",
"fX c #D8CFD4",
"gX c #CCD2D3",
"hX c #C9D4D5",
"jX c #D3D3D3",
"kX c #D6D7D7",
"lX c #DCDCDB",
"zX c #E8CFD1",
"xX c #E1DCDC",
"cX c #DCE2DD",
"vX c #E0E0DE",
"bX c #DBDCE1",
"nX c #E1DEE0",
"mX c #DEE6E5",
"MX c #E4E3E3",
"NX c #E8E8E4",
"BX c #EBEBEA",
"VX c #F1F1EF",
"CX c #EDF2F1",
"ZX c #F3F3F2",
"AX c #F6F5F6",
"SX c #FDFDFD",
/* pixels */
"SXAXyXiXwXaXjXwXiX9XhXfXtXhXtXeXwXiXrXhXrXwXgXwXrXjXrXwXrXiXrXgXrXrXiXrXiXrXgXrXjXrXrXrXrXsXjXwXhXwXtXjXsXrXiXwXeXpXwXgXsXwXxX8X",
"SXAXSXwXhXeXwXjXrXkXdX0XuXtXeXhXkX0XyXtXiXdXqXkXrXyXrXrXiXwXwXpXrXyXyXyXrXrXrXrXrXwXwXiXiXrXrXrXtXrXrXeXwXdXsXgXjXiXeXuXwXwX5X{.",
"qXSXSXAXwXcX7XeXyXgXwXgXdXwXhXyXdXkXrXfXkXhXtXaXgXkXkXwXiXkXjXqXuXsXsXrXsXrXsXyXrXjXdXdXjXpXrXjXrXjXkXgXkXjXdXpXaXwXsXjXrXaX(.K ",
"kX9XCX6 e O > t & 5 $ * 1 & w O @ O 6 @ + > # 6 r O @ * # . & t 6 * * & * * * * # * & @ * * & @ : 6 $ @ 6 & @ 5 t 4 & @ r k.>.G ",
"iXbXlXt 8 6 p 4 - v N - % : X , o = . k : . x 8 X = , . . z >.;.>.%.D z s s s h % ; X X o ; + X d b j + + s z z .   - . O 6.D L ",
"rXqXcX5 > ] p O.u g <.o.k y . - . g B F z b [ : : , , <  .C.|.N.(.N.j.7.-.H D M < ; ; , ; , , % 7 O.e.b + m { Z s ; < - O X.K L ",
"sXkXcX9 v _ @.@.+.x 2.P.p.G e ; v D c.v ' a.& h D : D !.=X=X=X=X$X.X].C.z.9.,.-.x < c N < g k < - ' u.O.9 C 5.w.J < > % * L { -.",
"eXjXmXO y / +.H.K.@.M v.^.3.D M 0.~.M F u.u l  .l ,.&XlXkXgXjXwX:X:X-X&X|.`.N.k.G x ;.:.j x J x l j <.e.' [ c.U.x.D 8 + 6 D { K ",
"rXrXvX6 7 p +.H.K.^.a.e !.+XW.r.@X7.O.I._ F 0.-.L >XSXZXVXZXBXBXlXjXqX:X*X.X).n.4...,.z.V.y D >.X.x 3.oXJ.;.U.XXx.J 9 ; 4 L K -.",
"iXjXvX7 : u } H.^.K.K.+.D  X+X!.t.t.^.' 6.g.>.C Y.BXAXZXVXBXCXrXeXeXwX>X=X].V.z.0.7.7.0.N.X.L L K x +.3XT.} d.U.d.J j = * L L { ",
"iXfXlX7 7 t ' @.R.E.S.Z.2 O.}.W.y.oXe.A v.l.F 5.N.xXZXCXAXBXMXkXeX8X;X*X|.V.m.m.1.7.9.0.l.7.C L :.c [ 2XoXq.3.[.t.G h ; 4 L L L ",
"uXfXMX7 6 q v ' ) G.D.S.F.A.o.' ^.R.k k.N.=.k.W.l.{.dXMXlXkXqXrX>X=X X{.`.z.0.5.7.,.1.7.0.9.z L ,.A j oX1Xa.o.U.1.Z z ; $ %.L L ",
"rXjXMX7 & O 8 q ^ P Z.F.F.G.I 2.P.g 6.U.6.'.zXdX;Xz..XeXwXkXrX-X=X|.C.N.C.'..X&X|.V.p.7.0.k.c L >. .h T.oXJ.o.B.;.c h ; $ { L L ",
"yXhXmX8 = + 1 I 0 Y S.F.F.Z.} ^.} ;.B.p.(.CXSXSXBX:X`.$XeXqX*X|.V.{.=XeXjXlXxXnXlXwX-XV.i.k.L A { :.h t.I.u.o.c.;.z h = $ L L L ",
"dXgXMX6 o O P U 2 Q ^ A.D.U W.r.k N.C.6.9XlXBXAXSXSX:X'. X|.`. X>XjXBXBXnXkXdXeXeXpXjXOXi.9.L c =.:.d q./.r.[ j.;.j , ; $ J L -.",
"rXjXNX&   2 0 1 T ^ ~ A.A.u.K.u 0.V.y.7.*.B.9XBXSXBXAX.Xj.*XsXcXNXBXNXdX:X*X X'.`.].=X#Xz.7.%.z ;...l x.3XP.[ 3.;.s : ; 4 L L -.",
"rXkXMX6 . 2 2 O ) ^ ^ ^ Y P.o.D `.k.k.-.h c 9.=XeXBXBX&X'.BXMXZXcXqX*X].z.1.H D D L ,.>.7.9.K D ..:.h a.4XL.o.<.t., X . 4 { K %.",
"wXkXNX& . 0 P 1 ^ Q ^ T ] T.c 0.v.9.C.1.; a D 0.;X>XwX>X=XNXlXqX.XN.>.c < ; X X   ; c m D -.C D -.X.x a.4XL.B 3.t., X . $ L K { ",
"jXgXnX6 . O 2 Y ^ ) A.Y 3.t.d n.k.C. X>., D h , 9.>XqX|.@XqX Xz.L x : X ; , < < , x -.;.;.L C c ;.X.A t.1XH.B 8.5.: X . * L L %.",
"jXhXxX8 , : 1 1 ^ ) T ] R.n >.k.k.eX=XD x 2.K h a '.{.0.N.`.6.h , 9 h x c z h h l L 7.9.7.,.L h =.;.x O.~.u.F y.5.; X . $ L L { ",
"wXkXMX* a K C + P A.T x./.9 g.;.].SX;XD z -.6.X.k N M.].V.4.h < c C G L D c h < D ,.9.9.7.g.7.h L >.x O./.u.B 8.,.- . . $ J L -.",
"eXkXNX@ = Z 1.3.b P T [.<.S 5.,.vXSX&X>.D ;.7.L c N.eXBX:X0.X D L G L -.-.L m c ;.7.9.9.7.j.0.h L L x P.1XJ.v 9.;.o . . $ [ L $.",
"jXjXMX> X : &.U.P.H [ ^.b 6.1.|.SXAX.X-.L ,.>.D j.NXZXBXNX'.; L ,.-.-.;.J c N >.4.i.l.n.j.0.0.k F ..x /.4Xa.p 0.-.X . . $ { L $.",
"sXdXxX> , 9 C $.|.L.<.a.z 7.*.yXAXSX;XL D ,.h -.vXNX!.-XVX*Xc m ,.>.>.-.c h ,.'.%X*X:X>X XN.j.D N -.z /.1Xu.B p.X.X . . @ L L %.",
"rXjXMX* : h m { C.w.a.3.x Z C.xXAXSXeXk k < ,.lXSX!.. '.AXkXD A -.1.-.J h k.>XeXwXgXeXwX:X|.z.h A H N oXoXt.b M.G ;   . @  .X.{ ",
"dXjXvX6 ; h z { N.8.L.F z H C.SXBXNXkXD < G -XAX=Xx   V.VXlXv.< %.L ,.g z.rXpXlXjXwXqXiX:X].d.x m S [ R.~.q.c T.h , ; : 4 J L #.",
"rXjXvX* ; h z { l.t.I.z m #.&.=XnXNX*X< D C.kX7X,.o , 7.NXVXqXj X.>.D 0.rXbXrXeXrX>X:X>X=X`.9.x A G ' a.a.+.[ C.D c h > 3 H G  .",
"rXgXnX* ; < z L d.u.J.j $.9.9 C  X>X].z.%XlX>Xi.o h c y jXBXlX0.c $.z *XlX:X>X;X:X-X&X X].N.6.h L v o.I.J.{ :.U.,.G j : @ K { { ",
"rXrXbX5 = , h L y.a.r.< >.N.9.x D ,.z.-XjXeXC.h A ,.-.m jXlXkX Xc k N.:X&X;X&X=X&X.X}.!.V.k...a #.u P.3XK.G t.U.%.b 8 & $ ..{ K ",
"rXgXlX* o , 9 H y.~.u.g 1.M.).2.H N g.|.vX%X>.> G ....D *XMXMX:X:.u |.=X.X$X#X|.}.W.B.m.l.,.l h K y ,X5Xa./ ;.9.] p i 9 5 J { #.",
"yXgXlX* X ; < H y.^.u.l y.M.).9.c >.'.z.:X=X>.h 9 k c , N.kXNXqXV.4.j.]. XY.'.Y.v.0.9.:.>.J h C F L 1X^.e.i _ _ +.' v , # K X...",
"yXrXlX6 X o , D y.^.<.z V.{.C.z.l N.lXV.l.iX;X'.C.N.m.-.`.eXeXmX>X].-.0.c.k.7.9.,.;.D < h D c { 9 a.6XP.] 2 Q / O._ q 6 3 K L [ ",
"rXsXxX6 X + ; G 8./.[ z '.&XC.z.h }.NXW.-.%XlXpX&XN.C.N. XqX:XlXlX].>.C 9.0.D A 7 V F K K 1.K C z ^.XXa.' P Q R _ ' p : 3 L L $.",
"yXsXMX* . X , J t.R.o.c `.OXC.j.h [.lX].-.N.wXm.-.'.`.,.z.=XpX9X|.k.,.6.%.< , z { #.;.7.9.7.:.D j a.L.q.i I R W p b u : # L J =.",
"pXgXMX* . o , { y.K.F D W.|.V.j.x .XiXC.9.7.].D C.yX{.1.j.z.;X*X0.k.k.C.>.= N -.7.1.0.y.k.9.,.k e.I.r.O.5 Q R Z.Y i 8 % $ K L X.",
"sXjXMX* . o ; J l.L.[ #.B.`.V.g.z ;XqXz.n.,...9.jXMXz.9.`.,.C.].k. X`.].9.x 0.0.9.k.k.y.k.7.L z oX^.p.O.2 I Z.Z.2 t 7 + 3 L L -.",
"rXjXNX6 X X o H U.~.[ -.N.C.N.0.c qX*XN.N..., |.vXsX7.s..Xk.0.7.].wX`.C.8.N 9.k.n._.m.n.k.1.l <.4X^.u._ P I W E P 7 8 % $ L L ..",
"rXjXBX6 X X ; L ~.XXO...m.C.V.0.D 7X].|.k.h 9 .XBX5Xi.n..Xn.-.c #XlXC.B.9.c 6.N.].{.m.C.z.[ c ~.3XL.+.8 P I ! E P & 7 % $ L L { ",
"sXgXMX* . X , -.c.XXO.D k.V.V.9.G -X'.].>.x < ].xX*X7.).].0.D c %XlX`.C.6.A y.`.{.`.B.N.9.A 7.2XoXp.+.1 P I T Q P 7 8 + # { L L ",
"yXjXNX* . ; 9 1.y./.O.M j.N.M.7...&X|.N.G -., ].MX*X9.|.`.,.z h #XkX|.N.L D k.N.].N.(.g.o.A P.4X~.e.' P I 0 E I P : 8 + @ %.K -.",
"sXjXBX$ + , : d.B./.O.< 9.N.b.4.>.&X X7.-.,.h '.fX$XN.].C.D l J ].iX=Xz.x D k.N.N.N.N.i.=.F R.^.J.3.q U E P U E P : X o 4 L L L ",
"rXjXNX& ; , h x.U./.<.s 7.N.v.4.7.$XC.>.-.>.A ].kX X(.].p.c D -.z.qX:XN.z D l.N.B.v.l.:.e <.L.t.e.} I R T R 1 ! 1 8 c < 3 L L ..",
"rXjXNX& ; 9 m c.U.T.3.u 4.m.n.7.k.{.0.-.,.;.D {.wX{.].`.L c -.;.,.=X>Xv.h L l.N.m.s.k.-.v XXoXr.q.` T ! I ! 0 1 } { C , # =.%.L ",
"dXjXMX* = 9 m x.U.P.t.z -.m.c.1.j.V.,.,.d.;.H '.:X].|.k.x L 7.,.L ].=Xi.9 :.M.k.z.9.7.c 3.4XoXr.q.q P I ~ T 8 U.f.-.a ; 4 L L L ",
"iXjXMX6 ; < m t.).L.u.h K k.b.4.>.g.,.s.n.>.D V.*X|.`.-.h 4.0.7.G z..X7.y 2.M.y.k.7.X.z ~.2XL.q.' P 2 I U 4.P.N.;.m < , 4 H H -.",
"wXjXMX6 : 9 Z 1.U.a.J.c Z i.c.,.c 7.0.k.v.>.D z.&X].9.l D 9.k.0.K 4.].7.l 2.z.0.0.4.A :.3XoXu.e.Y E P T 9.c.4.%.z x 9 % # L L L ",
"rXjXvX6 % 9 C ;.U.t.I.D z >.0.,.D 0.V.N.z.>.D j. XN.D c ,.k.z.d.>.D N.,.z ,.j.0.7.L N T.1XK.e.' 2 W Q A./ y.c.{ J m , X # -.-.L ",
"gXkXvX6 + < c { c.7.P.[ 9 L 4.7.1.N. XV.z.,.D j.].7.h { k.z.N.0.y.h 0.L c 9.p.g.2.m [ ,X^.3.3.q I T W R P q 0.U.G y , , 4 H G L ",
"rXkXMX$ X < m G j.u.f.e.8 J 6.i.l. X.XY.z.,.L j.N.H D ,.V.V.k.k.9.$.$.G N 6.y.9.K b a.r.a.t.` P E U I ^ W W ! y.f.L , . 3 L L K ",
"gXrXkX* , < j Z w.h.u.u.v x <.p.z.]. X!.m.7.L 0.9.N =.p.|.`.n.z.s.;.#.S G 3.2.K x P.oXt.q.] _ I P W A.A.Z.Z.~ ,. .B j - @ L { X.",
"tXfXlX> - < h D >.Y.} J.G y K d.z.(.].V.z.s.-.-.H D 9.V.|.].N.k.8.4.>.D C >.L c a.4X^.e.q.` P P U Q A.Z.Z.I O.@.' v j , 4 K J X.",
"eXjXlX* + , d z ;.m.G e.w.g F s.z.N.).N.j.0.>.G C =.j.B.).V.k.g.l.4.%.[ A S D O.3X3Xa.r.<.Y I P Q E ! W W / +.H.| B < & 4  .L L ",
"gXwXjX* : , 9 h d.Y.8.a.,Xp.g [ s.j.N.m.k.0.:.D K 9.z.N.z.z.k.d.i.5.>. .v < ;.1X4XJ.r.3.Y I P E I E I Q P } r.r.O.' q X @ ..{ L ",
"jXeXjXw - X z 7.[.d.b / ^.<X*.A >.,.j.z.j.0.>.G >.d.z.n.g.d.k.y.8.*.-.z x p.,X3XL.e.<.B ` ! I E E ! I U 0 +.H.r.+.' u : 4 G J ..",
"eXaXkX@ + < [ x.F = W Z.u.+XI.j D H >.9.0.7.J L ;.j.g.z.i.9.7.,.*.' k g J.3X+XJ.q.w.F } x.w.R T Q ! I P / O.@.r.+.' u 7 4 L K X.",
"wXfXjXO 9 { %.j } @.) D.A.K.L.e.B z G -.1.-.D D >.i.7.y.2.>.-.A a 9 w.P.I.~.L.O.u.' z ). XU._ P I E ! q } ] O.+.+.' i & 3 #.L X.",
"eXyXsX@ j % u +.H.K.r.~ Z.! u./.Q.<.9 < c x x c h h c N x e , h o.I.,XI.3.[ O.} v m 0.y.{ y.x.f 2 P 2 q _ _ p _ ' ' b & # #.L { ",
"kXwXrX4   p O.@.@.+.] q P P ] a.I.L.<.k , , - X , , ; = , v O.a.Q.J.w.' b b v j N F [ m X < %.} q 2 1 7 p p t i i i u & # $.K J ",
"qXuXpX4 : ' _ _ i p 9 7 1 1 0 ' } @.+.p 8 b ' v h n _ N B O.O.+.[ p 8 9 u 9 > < Z x -       ; c s 8 + : 7 8 : 8 6 > 7 & 4 %.{ X.",
"sXgXjXO 9 6 5 y % * & 6 O 1 1 @ , y 9 : > z m b b b b y 7 9 8 : : = : > : + & y , X     , X     < : @ X % % % + + X % + # L K =.",
"sX>XrXi O O w # $ * * 4 @ 5 # 3 r # # 3 4 @ # 3 r t 6 # # * 6 4 * 4 $ # @ # # 4 6 $ 4 r 6 & $ 6 5 5 & @ 5 $ & 6 6 * 6 * 6 B K ..",
"pXlXqXi.[ >. .F [ -. .{ G =.=.[ {  ...{ L =. .%.D D K { X.=. .G G J %.-.>.>.;.H X.J  .=.D [ %.L L L L $.L L L $.L K J K F -.$...",
"sX9Xn.K H #.D ;.K #.J L J L $.#.G L X.J G G L { ;.=.L L L L K =.X.X.#.L H H L L L L { .. . ...G { L L $.L L { L L L %.$.J ..K G ",
"eXv.N { -.A o.#.L { { K %.J { #.$.L L G X.$.L G K G L L L G J -.L G G X.X.L J L H %.L H %.$.H X.L K L L L  .{ J ..K L L J L $.$."
};
