/* XPM */
static char *_648667707124[] = {
/* columns rows colors chars-per-pixel */
"64 64 253 2 ",
"   c #020101",
".  c #0B0502",
"X  c #060807",
"o  c #0C0B03",
"O  c #03030A",
"+  c #0B0C0A",
"@  c #130606",
"#  c #110C03",
"$  c #130C0B",
"%  c #0C120B",
"&  c #14130C",
"*  c #181609",
"=  c #0A0B14",
"-  c #140B13",
";  c #0E1312",
":  c #141313",
">  c #1B1513",
",  c #131B13",
"<  c #1C1B14",
"1  c #16171A",
"2  c #1D1D1A",
"3  c #22190F",
"4  c #221C15",
"5  c #281A16",
"6  c #231D1A",
"7  c #17250F",
"8  c #1A2617",
"9  c #1D231A",
"0  c #1C361A",
"q  c #2F250E",
"w  c #242215",
"e  c #24231B",
"r  c #2B241C",
"t  c #272918",
"y  c #2D2B1C",
"u  c #36281B",
"i  c #322B1C",
"p  c #26331B",
"a  c #36341D",
"s  c #1E1021",
"d  c #261C22",
"f  c #192A23",
"g  c #242322",
"h  c #2B2522",
"j  c #2D2B23",
"k  c #282B26",
"l  c #332C23",
"z  c #352825",
"x  c #3B2D23",
"c  c #332D2A",
"v  c #243323",
"b  c #2C3324",
"n  c #273C25",
"m  c #2C342A",
"M  c #343324",
"N  c #3B3325",
"B  c #393A25",
"V  c #34332A",
"C  c #3C332B",
"Z  c #343C2C",
"A  c #3B3B2C",
"S  c #352D32",
"D  c #393732",
"F  c #44311A",
"G  c #4A2D26",
"H  c #473726",
"J  c #42362C",
"K  c #433B2C",
"L  c #4C3C2C",
"P  c #533C2B",
"I  c #583928",
"U  c #443C33",
"Y  c #463A37",
"T  c #4A3D34",
"R  c #563B33",
"E  c #1A461C",
"W  c #24451C",
"Q  c #2B4528",
"!  c #2D4B2A",
"~  c #35472A",
"^  c #334C2C",
"/  c #2C5429",
"(  c #33532C",
")  c #38582C",
"_  c #394934",
"`  c #2D5132",
"'  c #355332",
"]  c #3A5333",
"[  c #355A32",
"{  c #3B5B34",
"}  c #3C553B",
"|  c #3D5D3B",
" . c #3C6434",
".. c #376C34",
"X. c #3C643A",
"o. c #48452C",
"O. c #53422C",
"+. c #59482C",
"@. c #48562F",
"#. c #4B4235",
"$. c #454339",
"%. c #4C443B",
"&. c #484838",
"*. c #534434",
"=. c #5B4433",
"-. c #544B34",
";. c #5C4936",
":. c #53453B",
">. c #544B3C",
",. c #5B4C3C",
"<. c #455637",
"1. c #445C3C",
"2. c #59543A",
"3. c #664A2D",
"4. c #644C33",
"5. c #6F4F33",
"6. c #694B34",
"7. c #634B3B",
"8. c #65523B",
"9. c #6A5538",
"0. c #755538",
"q. c #745B3B",
"w. c #466539",
"e. c #43643C",
"r. c #446A3D",
"t. c #4A6B3D",
"y. c #556537",
"u. c #47743D",
"i. c #76623C",
"p. c #4A4644",
"a. c #4D4C43",
"s. c #544B43",
"d. c #5B4D42",
"f. c #574C48",
"g. c #4C5446",
"h. c #5C5343",
"j. c #585547",
"k. c #4E5357",
"l. c #575759",
"z. c #5C5B5C",
"x. c #6D564B",
"c. c #665848",
"v. c #785A47",
"b. c #665A55",
"n. c #446541",
"m. c #456B42",
"M. c #4A6D42",
"N. c #4B6648",
"B. c #536E49",
"V. c #4C7344",
"C. c #4B7745",
"Z. c #537A48",
"A. c #5C655E",
"S. c #557A53",
"D. c #6B634B",
"F. c #786546",
"G. c #686356",
"H. c #766855",
"J. c #7C745E",
"K. c #5A5561",
"L. c #5C5D62",
"P. c #635D63",
"I. c #5E6365",
"U. c #5D6272",
"Y. c #636464",
"T. c #676869",
"R. c #6C6B6C",
"E. c #756A67",
"W. c #6C726E",
"Q. c #79746A",
"!. c #6F6F73",
"~. c #797879",
"^. c #805937",
"/. c #8B6B3C",
"(. c #865E4B",
"). c #856648",
"_. c #947349",
"`. c #876E56",
"'. c #89765A",
"]. c #987B54",
"[. c #A67B58",
"{. c #887664",
"}. c #8B776E",
"|. c #4C8347",
" X c #56844A",
".X c #5B8454",
"XX c #5B8B55",
"oX c #658859",
"OX c #648C5C",
"+X c #66965C",
"@X c #6C8C62",
"#X c #6A9962",
"$X c #739D69",
"%X c #76A56C",
"&X c #75AC6E",
"*X c #7BA973",
"=X c #A6884F",
"-X c #A6855B",
";X c #948973",
":X c #A69365",
">X c #AC9070",
",X c #83AC79",
"<X c #84B57B",
"1X c #85BB7C",
"2X c #89B97C",
"3X c #91BE7E",
"4X c #C39379",
"5X c #88C37E",
"6X c #7B7C82",
"7X c #7D8286",
"8X c #858585",
"9X c #959899",
"0X c #A49C9C",
"qX c #8BB882",
"wX c #8CBC82",
"eX c #91BB85",
"rX c #95BC89",
"tX c #A7A8A9",
"yX c #A9A9B3",
"uX c #AEB1B4",
"iX c #B7B6B9",
"pX c #C1BBBB",
"aX c #8DC383",
"sX c #8FC888",
"dX c #91C485",
"fX c #93C389",
"gX c #97CA8C",
"hX c #8ED58E",
"jX c #98D18C",
"kX c #9BCA92",
"lX c #9AD294",
"zX c #A2CE93",
"xX c #A4D599",
"cX c #B7CBB1",
"vX c #B2E7A4",
"bX c #C5C6BB",
"nX c #BBBBC4",
"mX c #C8BEC3",
"MX c #AFC1C8",
"NX c #BBC3C4",
"BX c #C6C7C8",
"VX c #CACBCB",
"CX c #D1CFCF",
"ZX c #C9CAD2",
"AX c #CDD2D5",
"SX c #D7D6D8",
"DX c #DBDBDC",
"FX c #E3E0DC",
"GX c #DDDDE1",
"HX c #E2DCE3",
"JX c #DBE4E5",
"KX c #E4E6E7",
"LX c #F1F0F1",
/* pixels */
"* V r V y j i j y r j V M r y V i i M h e y N l a i j M M M y i y l i M l y i M l l a y l l r M M r i C V M i l M l M M V r j * ",
"C VXLXLXFXSXKXKXDXSXDXGXHXDXDXDXLXJXDXDXDXKXKXSXSXSXKXHXHXJXDXCXZXZXZXAXAXVXZXAXVXVXBXBXBXBXBXnXBXnXnXBXVXpXiXuXyXcXBXuXbXAXtXw ",
"y SXDXJXLXSXDXJXKXDXSXGXKXDXSXAXSXGXKXKXCXSXKXKXDXSXSXDXKXKXDXAXCXCXCXCXCXVXVXCXAXVXBXBXBXVXBXiXpXiXNXNXBXBXBXiXiXyXiXmXNXiXQ.  ",
"t KXVXQ.k.f.k.a.f.a.p.a.a.a.a.$.a.p.&.a.p.p.s.a.a.%.%.$.$.p.p.&.U _ Y $.$.D V M U V S V b z V l g h j h k k e 4 i q 4 , r R.6X$ ",
"r DXGXp.                        X         X   X   % % % X 8 n Z k 0 v b 0 8 8 8 t 0 9 8 %                           O   2 9X9X  ",
"V CXDXg.  $   X                   O X     X 7 8 n n ! e..X$X*X*Xe.( ' { ( ^ ' ^ ^ | { ! p +                     o O     g 8X;X$ ",
"r JXKX%.                        X X X 7 ] t.<.) X.' | #XsXkXrXaXXXV.C.Z.1.e.V.X.) M.t.{ ) 8   X +     X       O     O O < 8X6XX ",
"M KXAXa.+     X                   7 Q  .XX+X.X XZ.XX$XfXgXwX*X1X+X XXX+XC.V.V.{ ( N.X.[ X.Q . < < 4 r K #.%.>.c.h.d.z * 5 8X~.+ ",
"l SXDX%.  ,.c.k +     O           7 ^ w.XX*X*X X+XaXzXlXjXrX1X%XrX*X|.oX+XM.C.w.} m.X.X.V.Z.&.K G.D.x.c.D.H.c.c.c.c.Y d e ~.!.* ",
"y AXGXp.& F.0X>X}.c.D d * o > j J _ V.+XXX$XfXkX2XkXxXlXdX2X<XdXfXdXOX XZ. XB.{ w.X.1.X.| X.] V K l ~ b c J o.D &.&.C e y 8X6X. ",
"z AXAXT r b.{.{.;X>X0X>X>X9X>X>XD.<.w.+X,XwXdXwXlXgX1X*X*X%X*XgX3X2X%X#XS.u.e.' ) } e.u.1.{ { X.Q z n t 8 h U j.&.$.u 3 9 ~.7Xo ",
"V AXSX&.&.H.'.H.v.H.`.'.'.H.j.| ' |.OX%XsXfX2XeXxXfX1X<XqX*X%X1XgX2X1XOXC.m.t.M.] w.m.V.u.<.'  X' ~ <.A ( m z >.h.s.#.j 6 ~.7Xo ",
"i AXCX$.U c.'.;X;XH.c.G.c.y...X.m.*XdXwXsX*XqXgXlXkXlXzXkX1X$X$XfXfXhX@X XXX Xw.V.M.e.m.u.{ Q n.| / ..g.u._ > 6 5 , 4 e j 8X7Xo ",
"i BXZXS 5 h U c.D.(.H.2.g.%XhXkX2XrXeXdXeXqX<X2XaXkXlXgXdX2X*X1X<X%X*X#X.X+XS.r.Z.n.r.t.e.] { X.u._ X.n.M.} p 5 4 +     < 8X8X# ",
"i BXVXA z c V V Y j.g.E ~ 2XvXzXhXfXlXlXrXqXsXlXwXsX1X3XaXfXkXxX2XXXOX#XZ.|. XOXt.X.u.t.e.} w.r.C._ ] w.{ _ ^ K >.%.h O : 6X7X# ",
"b VXZXm h L >.:.C $._ e.oXjXlX5XrXgXkXlXjXdXkXkX2X*X%X<XkXkXjXgX#X#XeXwX%XXXXXZ.| t.r.| u.{ ! <.<...V.e.e.r.) b 9 $.J 3 w 8X7X# ",
"l SXZXV % : C J s.U _ OX&XgX%X1XrXdX3X<X2XdXdXwXwXwXwXwXfXsX1XeXOX XsXxXzX+X.Xt.e.e.r.r.m.t.r.m.' e.u.{ r. Xn.j h V J i 2 7X8X# ",
"b DXHXp.K J :.m j Q / u.oX<X1X5XsX<X*X<X1XeXeXwX3XeXfXaXwXwXqXgX#X|.*XkXlX+XOX.Xe.w.m.m.r.m.r.1.u.g.u.C.g.{ Q j l m x 5 2 8X8Xo ",
"u DXJXp.s.G.>X{.Q ! Q .X<XdXxXxXlX2X,X<XdXfXrXsXaXfXgX2X5XeXfXwXdX XOX%X*Xt.X. .e.m.M.X.e.m.w.| C.<. .e.| ] ( Z y k l e d @X6X+ ",
"m DXFXY J T D.G./ Q ^ .XsXjXzXgXkXfX2X2XwXdX1X,X<XgXsX*X%X1XlXfXgX.Xt.Z. XX.e.m.e.M.V.r.e.m.n.{ 1.r. .Z u.m.m.{ 9 e y e h ~.~.# ",
"r SXDX&.m $.b.x.Z ) |.Z.,XgXdX,XaXjXlXrXeXfX2X*X,XjXeX1X#X*XxXvXfXOXn.] | [  .{  .V.V.r.t.V.V.X.1.C.V.e.r.r.| { g 5 w < d ~.6X# ",
"b AXAX&.z H U H p { XXM.oX<X1X2X&X<XwXqXqXqX2X<X1XfXdXgXaX,XkX1Xt. .' ) w.Z.Z.B.t.V.V.t.t.Z.V.V...e.S.XXM.~ / ' ~ j 2 : 6 8X6Xo ",
"N CXAX&.$.h.g.<.p ) B.u. X.X%X2XOX.XOX#X#X#X%X<XsXrXhXzX5XoX#XV.{ X.r.t.M.V.m.n.M.M.m.e.e.m.V.C.[ <.C.Z.r.m / ' { ~ e $ 9 ;X7X. ",
"l ZXSXD J %.&.0 ( r.u..XS.w.oX2XOXXX X.XoXXX%XqXeXjXrXsXB.W } [ [ <.{ [ ' ( ) r.m.r.| | | X.X.m.} V.M.{ ( ^ [ p ~ C l : 2 8X7X# ",
"l BXBXc : 2.0 ! ] Z.e.r.w.S.|.S.C.S. XZ..X*X#X+X3XlX1XOX|.( <.( w.1.XXw.~ [ _ Q ^ ^ ~ 8 ( m.{ { N.|.X.Z [ X.m ( ( k w + 5 7X7X# ",
"h VXcXU : X _ ! 0 _ W Q n.|.S.w.V.XXN.V..X$X$X,X2X%XoX XZ.` ] ( / ( M.| / ( Q 0 0 v b 7 Q X.| N.u.1.m. .] [ / ~  .Z t $ 6 6X7X# ",
"c ZXBXY c > , 2.! v p ! Z.|.S./ t.u.] 1.u.V.m.S.u.1.C.+XoX) / ( ( ^ ] ( ( ) ~ p 7 v v 8 8 ! ( | [ 1.n.{ [ ) Q ( [ Z b : 2 6X6X+ ",
"M NXVXY U D.4 U H.Q ~ ( n.1.' ~ ! ] ( _ ~  .! ) ` ~ X. Xt.! ^ <.e.) ^ ( ! { Q Q B ~ 0 8 0 ^ Q n v ..^ v ! ( Z X.Q n y ; 9 ;X~.o ",
"i ZXVXD 9 '.Q.5 h.^ n ( Q Q / ~ [ ' [ ( n ' ^ Q ` ~ ^ ) ` ! Q ! [ ! / / Z ~ 1 t 8.H 8 t n { ^ 8 p p 0 0 ~ ^ / Q ~ M e - 9 ~.}.% ",
"j bXBXc 9 c.;Xj.b <.0 ~ 0 Q ] p ) ' ~ / 8 v ) C o./ [ ] / <.~ Q ^ M Q 8 , 8 @ u q.L v p v ~ ] p 0 e 8 W ( ] ( p A M w X 9 ~.~.+ ",
"V iXVXt e d.H.>X5 d._ Z Z _ %.z i b H o.; 4 +.v.5.B m b < H +.2.o.=.o.* . + 4 +.9.B 0 p t m o.t 0 v 8 v ~ n b e l t < @ 9 ~.~.# ",
"y BXBXS % c.Q.].r #.H.8.D.c.U C < r 3.5.% ; I ].i.5 - 5 $ C ;.5.+.q.4.9 & - y 8.*.e 1 0 i A +.e < b t e 6 < e > ; , < $ w W.!.o ",
"x NXBXV   c.H.Q.u m H.7.b.h.c.f.Z 5 F q.P   # `.[.F = 3 : i 4.8.,.3.q.: $ & H F.z $ + r P L i 6 e g j y j y y y l T C w 9 !.!.$ ",
"8 mXnXM   b.H.v.1 H d.j.c.2.G.*.Y 5 4 2.7.6   O.:X).- @ w x +.4.5.%.q.w X C 0.*.9 e F P H i j l U U U $.D U A $.2.g.C 4 5 !.Q.o ",
"a BXMXb @ d.J.H.= H b.s.,.c.Y V k 2 , u 5.3.& . F.>XF + r =.-.3.5.:.5.a u 9.9.N F H P H y 9 r M J J K T R :.d.d.,.d.J 6 1 T.T.+ ",
"C pXVXh   &.`.f.X j.H.d.c.a.5 A K R c 5 9.q.V : u [._.N H +.O.9.-.5.+.L 5.q.J H G N t 7 < < e e e 9 2 6 e e e e V C l r y E.E.* ",
"h NXVXe = D.c.+ < {.>.G.v.k Z T U $.Y e 3.6.6.q.H ;.].q.9.L H 5.;.+.F 7.9.2.G a , , , > 2 l C C J C C J K J C C j 2 X O 2 !.T.O ",
"H BXnXp @ O.9   c.{.j.'.J i p.T T J L 9 +.8.5.9.5.a ).(.9.+.6.9.4.=.O.9.R A u < , e j l C #.%.%.U U U #.#.%.%.Y :.H w & 9 W.E.# ",
"V mXnXM   O = T `.D.E.7.< &.J U T $.D 2 K 9.0.6.q.H 9.v.7.q.).9.+.4.;.;.R u , $ u l M l x N x c %.R %.:.:.:.*.*.p.s.U u 5 R.R.+ ",
"i NXAX5 < g 9.}.j.D.x.1 K s.C C o.Y L C l J O.2.q.7.+._.6.7.).i.I @.3.#.#.q = u e 4 > * $ + + . o & 4 y C $.s.c.c.c.D 2 2 W.R.# ",
"N iXiXj :.c.H.s.b.H.V r >.$.F D U $.K r $ X - * l $.P ].).7.-Xq.P +.=.*.J > < i 6 5 e h l C K K S 5 w 6 $ $ w 5 C #.#.A g T.T.# ",
"B NXBXh z V 2.c.{.u r p.o.B $.R U 5   ; j B l s = # ;.6.:X3.`.q.P +.+.o.C 6 4 C T U U T T #.%.%.8.>.>.*.P J c j 4 $ X * w R.T.. ",
"t iXpXt x $.c.x.T k -.O.c $.Y 8   e h.'.`.b.$.o.l & T _.x./.R 5.=.O.O.K V w > C U T #.T #.#.#.&.A %.T Y %.<.&.*.P l : O & T.W.# ",
"V uXuXw U %.%.V x D C c %.J O $ f.H.H.%.c A J j H = O._.9.'.3.v.4.K L J J u e C K A U U U T #.%.2.*.%.%.p.%.U D U Y x < w T.R.. ",
"N uXuXe z g M J C T s.U # . A E.'.U ; < M t 6 z 6 1 L ).v.=Xv.q.O.N O.T J H V U C V C M l C N C C d c A q $ : # o $ & & i Y.U.@ ",
"r yXuXe x l T >.:.p : @ : b.;X-.= r K ,.b.H.c.T T = 5.F.].9.).6.N F +.L c N V N :.:.%.:.:.>.>.:.o.%.*.r   : c l r 5 +   4 Y.R.* ",
"b uXiXt j r r g O $ , >.[.'.m O >.c.b.c.2.h.c.c.-.= 6.=Xv.x.].9.u O.4.o.r z N w #.T #.%.s.d.>.:.T d.c O h v.`.D.f.h.B = w Y.Y.  ",
"u tXtX< 3 O   # b %.'.}.g.+ 5 '.Q.x.>.:.s.%.T K l > `.)./.v.=XH H +.7.K y C $.6 %.U U %.>.d.:.$.T %.3 * j.J.:.%.:.>.T 6 q l.Y.# ",
"e tXyX: > i h.H.H.{.;Xs.; -.>XH.s.>.>.:.,.p.Y U : J x.^.-X`.).a 4.+.=.2.q e T r Z P *.&.,.:.%.:.Y R X y H.a.T >.s.s.K 6 e L.P.. ",
"h 0X0Xw U b.H.x.H.}.H   c.;Xc.>.,.*.,.j.g.*.H l 1 a ).-XH./.5.G 9.O.9.;.k 4._.K 2 D %.#.K #.Y J D T < 2 R >.%.a.;.h.#.r t L.Y.  ",
"B tXtX1 l *.v.D.'.N 2 b.{.b.c.a.%.h.g.:.R Y V l   3.[.>X4.+.O.O.6.H q.6.D =._.7.q C :.T S D T N T #.M > J c.g.=.%.p.K 6 9 K.G.+ ",
"g tXtXt J $.G.D.t 2 H.}.c.-.%.,.2.h.d.R $.&.C @ ;.4X-XI I F.9.;.=.8.0.,.O.h 0.i.J m $.,.-.O.T Y %.h.c.e + x *.j.c.c.K 5 4 l.b.. ",
"N 9X9Xe $.>.>.D T Q.E.8.-.s.D.%.h.s.g.h.I > 0 q.>X].O.F F.[.*.4.P _.5.Y x 5 F.i.5.N C T >.$._ s.d.K s.c.F ; : C #.$.i : w z.z.. ",
"e tXtX< : 4 #.8.'.2.2.p.p.h.s.j.j.,.=.D f u (.>X).u L ].-X6.H +.9.`.5.c.z r F.v.*.R N m T 7.:.R <.R >.j.j.f.z X @ = O   , A.G.o ",
"y 9X9X& N *.c.b.T j.>.8.H.D.c.c.h.D g K `.[.F.I #.3._.(.4.a 0.*.).v.i._.L 6 ,.).]./.I , , z &.2.,.j.f.%.-.h.c.7.a u < $ 9 L.L.X ",
"i 0XtX9 C U j.,.,.J C C r g c i 6 K ).].).I u r F 4.T H N 8.q.+._.2.].).+.1 P -X).c.q.0.O.< , z Y $.I h.j.x.c.G.J.b.#.h e K.b.. ",
"t 9XuX5 g t l ; .     X     O < F.^.+.&                   $ 4 i o.`.].9.(.P 2 8.3.l x 6.q.9.i   O X o : < < e h x u : O e L.K.. ",
"J 9X9X$ +     X X O O     + a 3.4 & X     . .                   # l +.;.=XF.i u X       - P 5.P o                 X     < j.z.* ",
"# 9XtX$ +                 . $ $ .         X         X           @ O # $ o.;.P H $     .     X & * $                     < l.K.  ",
"A 8X~.< p.+                       X                                     . * 5 u F w : X       .                 X     X 9 A.I.. ",
"w tX8X4 h > j 2 8 8 5 5 4 9 t u w e 9 2 4 w t < e 6 w 2 < 6 4 6 9 2 e 8 w w 9 6 8 w 4 > 8 t t , w w w t w e w 9 9 , 6 6 6 p.l.& ",
"l 8Xl.E.Y.Y.I.T.E.T.I.I.Y.T.T.U.R.Y.T.R.T.I.L.Y.Y.R.R.R.R.R.T.Y.R.E.Y.A.b.P.I.L.P.L.K.Y.G.K.K.I.L.L.z.l.l.l.l.l.b.z.z.l.p.k.p.. ",
". G.I.W.L.W.!.R.E.T.P.P.A.I.T.R.T.T.R.R.T.L.L.T.L.Y.T.R.T.T.T.Y.L.Y.P.I.P.L.A.A.z.A.A.z.L.I.z.G.z.I.K.z.l.z.z.z.K.l.k.A.k.a.D $ ",
"2 . &   $ . X # + X # o # . . o @ o o X o $ # + . o # o o o o # o & . + @ o # @ . @ . X # . . + . o o X o # o   o + o * . . $ o "
};
