/* XPM */
static char *_648667702447[] = {
/* columns rows colors chars-per-pixel */
"64 64 247 2 ",
"   c #040305",
".  c #0C0601",
"X  c #0D0A02",
"o  c #05050A",
"O  c #06090C",
"+  c #0B0B0B",
"@  c #090709",
"#  c #110C03",
"$  c #110D0B",
"%  c #16140A",
"&  c #0C0D13",
"*  c #080B15",
"=  c #110F16",
"-  c #0D1115",
";  c #0D131A",
":  c #051418",
">  c #131215",
",  c #13151A",
"<  c #1B1A18",
"1  c #0F1102",
"2  c #211E15",
"3  c #221F19",
"4  c #261C17",
"5  c #1F2117",
"6  c #222216",
"7  c #23221A",
"8  c #2B251B",
"9  c #2D2A1D",
"0  c #252817",
"q  c #322B1E",
"w  c #38341E",
"e  c #171B26",
"r  c #1C1B30",
"t  c #211D24",
"y  c #1D222D",
"u  c #1C2335",
"i  c #2E2C21",
"p  c #272427",
"a  c #322D22",
"s  c #322A28",
"d  c #343124",
"f  c #34322B",
"g  c #3B3528",
"h  c #222434",
"j  c #242639",
"k  c #252A3C",
"l  c #282A3B",
"z  c #3B3834",
"x  c #2A323B",
"c  c #423B34",
"v  c #3F423B",
"b  c #47463D",
"n  c #58493F",
"m  c #1A2D42",
"M  c #1C3247",
"N  c #0D2841",
"B  c #2B2D45",
"V  c #2B2E49",
"C  c #2D334C",
"Z  c #293345",
"A  c #31364E",
"S  c #35394B",
"D  c #2F3650",
"F  c #313751",
"G  c #343A54",
"H  c #393C56",
"J  c #363C59",
"K  c #393E5B",
"L  c #333758",
"P  c #3D3E62",
"I  c #413C4C",
"U  c #443D67",
"Y  c #36415B",
"T  c #3B415D",
"R  c #384657",
"E  c #31424C",
"W  c #3D4362",
"Q  c #3C4765",
"!  c #375B7A",
"~  c #2E4F6F",
"^  c #39617E",
"/  c #4A4845",
"(  c #53524C",
")  c #46495A",
"_  c #5B5C5D",
"`  c #565658",
"'  c #514D4F",
"]  c #655854",
"[  c #5D615E",
"{  c #75635B",
"}  c #414564",
"|  c #434965",
" . c #424668",
".. c #444B6B",
"X. c #494D6C",
"o. c #4B516C",
"O. c #46526B",
"+. c #5C5E62",
"@. c #555768",
"#. c #4A4E71",
"$. c #454D70",
"%. c #455373",
"&. c #4B5373",
"*. c #4B5A79",
"=. c #525574",
"-. c #525A75",
";. c #535B7B",
":. c #595A7C",
">. c #514D6A",
",. c #615F6B",
"<. c #5C6163",
"1. c #59647C",
"2. c #56657C",
"3. c #49637D",
"4. c #636365",
"5. c #6A6A6D",
"6. c #676669",
"7. c #6B6B71",
"8. c #656979",
"9. c #716F71",
"0. c #78777A",
"q. c #717071",
"w. c #88776B",
"e. c #8E7B75",
"r. c #7E817B",
"t. c #8C8276",
"y. c #948376",
"u. c #346488",
"i. c #2E5D86",
"p. c #4C5C84",
"a. c #565C84",
"s. c #4A6586",
"d. c #5B6383",
"f. c #596787",
"g. c #5A7388",
"h. c #5A6D93",
"j. c #49779C",
"k. c #587696",
"l. c #4E6C94",
"z. c #656A89",
"x. c #68748A",
"c. c #7C7C81",
"v. c #757789",
"b. c #646E92",
"n. c #6A6E94",
"m. c #6B7294",
"M. c #6B7799",
"N. c #74799B",
"B. c #716D8F",
"V. c #4E7CA4",
"C. c #747CA2",
"Z. c #797CA7",
"A. c #6C78AC",
"S. c #615E88",
"D. c #5D7EC2",
"F. c #827D86",
"G. c #827FA9",
"H. c #7F8181",
"J. c #6A8599",
"K. c #7A859A",
"L. c #79929D",
"P. c #558BB1",
"I. c #7582A3",
"U. c #7C83A5",
"Y. c #7A87AA",
"T. c #7993A6",
"R. c #6796BA",
"E. c #7793B5",
"W. c #6B88B3",
"Q. c #5799C9",
"!. c #6799C5",
"~. c #6594D4",
"^. c #45A6D5",
"/. c #6EA8D2",
"(. c #6EAFE8",
"). c #5CB4F4",
"_. c #239DD3",
"`. c #828383",
"'. c #88878D",
"]. c #989797",
"[. c #908990",
"{. c #A39590",
"}. c #8589A9",
"|. c #8793A5",
" X c #9699A4",
".X c #858CB3",
"XX c #898CB5",
"oX c #8C93BB",
"OX c #8897B7",
"+X c #9498BD",
"@X c #95A6B1",
"#X c #A8A8A9",
"$X c #A7A8B8",
"%X c #B7B8B9",
"&X c #ADB1B7",
"*X c #AAA399",
"=X c #C6B9B6",
"-X c #BEC0BB",
";X c #949BC3",
":X c #9A9DC5",
">X c #969DC8",
",X c #8C9CC9",
"<X c #9CA3CC",
"1X c #97A5C7",
"2X c #9BA7D3",
"3X c #89B6D8",
"4X c #90AFD0",
"5X c #A3A7CA",
"6X c #A9B6C6",
"7X c #B7B8C7",
"8X c #A4ABD3",
"9X c #A6ABD7",
"0X c #AAB4D8",
"qX c #B5B6D8",
"wX c #B2AFC2",
"eX c #8AB6E7",
"rX c #92B7E6",
"tX c #B7BBE2",
"yX c #A09FCE",
"uX c #C1BCD2",
"iX c #98C5D5",
"pX c #B2C3D1",
"aX c #95CBE8",
"sX c #BCC4E5",
"dX c #AECFED",
"fX c #B0F1F8",
"gX c #97E3F3",
"hX c #C2C3C5",
"jX c #C4C6C9",
"kX c #CBCBCD",
"lX c #C6C9CA",
"zX c #C8C8D5",
"xX c #CDD4D6",
"cX c #DBDCDD",
"vX c #D5D5D8",
"bX c #D2CFD0",
"nX c #C3C5E4",
"mX c #C7CAE8",
"MX c #DCDCE4",
"NX c #CBD1ED",
"BX c #E0DCE4",
"VX c #DBE3E2",
"CX c #CBE9F3",
"ZX c #E3E3E3",
"AX c #E8E6E8",
"SX c #EEF2F2",
"DX c #E0DEDD",
/* pixels */
"% f 8 c 7 i i s 0 8 i d d 8 9 d d d d i 8 q d i i a w d d i q 0 d i i d d 9 d g i d a a i i a d a a a f c w 8 q g 9 d q c q a % ",
"g bXAXSXVXDXZXAXcXvXcXZXBXcXvXcXZXVXVXvXvXDXZXZXvXvXcXZXAXVXvXxXkXkXkXbXkXlXkXkXkXkXhXhXhXhXhXhXhX%X-XlXlXhX=X%X#X%XhX%XhXbX*X< ",
"q vXxXDXSXcXvXcXZXcXvXcXDXcXvXvXVXZXAXZXxXvXVXAXvXvXvXMXAXZXcXbXxXkXxXxXxXkXlXxXvXbXhXhXjXjXhX%X7X%X%XhXlXpX7X%XhX&X%X%X%X&Xc.. ",
"0 AXbXq.( ( ( ( ( / / ( ( ( / b b v n / b b ( / b b b b b / b b c c c c z z f g z f f f f z f i 9 8 i a i i 8 7 < < 4 0 i q.0.. ",
"0 cXZX/   O * * > - - : > - - - 5 : : : ; ; , : ; e : : : * - ; - - - - & O O * O @ O @ @ O O o + & O o O O O @ @ , +   % '.].. ",
"g lXvX( , k m m m m M M m m m M M u k M M M M k N M M x Z m k x p p e < e < , , - = = , ; - - ; & & $ : & * - + & o   & i '.`.+ ",
"9 DXAXb * M ~ ~ ! ! ^ ! ! ! ! u.u.^ 3.g.8.0.v.g.u.i.i.i.u.i.! 1.R E S x x l h h r h h y y r u h r h u y r r r e e e ; @ 5 H.`.X ",
"a ZXvXb , u ! P.j.j.j.j.j.P.j.V.s.3.8.8.8.q.c.v.|.P._.j.P.j.g.[.1.@.| ) Y A C A B B x B k Z D E B A Y G Z B B Z V h *   5 H.H.X ",
"i vXcXn - N s.u.R.R.R.P.!.^.Q.R. XK.v.v.v.2.-.1.|.Q.^.Q.!.R.M.v.v.x.1.O.Q Y Y Y Y K K J J G L L Z A H T Q W G C j e * o 6 F.0.# ",
"9 xXvXb - M u.j.Q.P.R.R.Q._./.@X|.x.f.f.1.-.o.&.8.g.W.E.R.J.z.-.o.O.) Y G G F F A F F C D C C C V C D F G T W Q A u , o < 0.0.X ",
"i bXvXb ; k ! j.R.R.!.R.^._.iX6Xv.1.&.2.1.@.X.Q Q O.8.m.J.g.=.J G G F F A A C C D A C C C C V C C C V V Z A J Q G u e o < c.r.+ ",
"d xXvXE , u ! P.iX&XpXpXaX^.@X@Xx.z.8.8.1.O.W T T R | &.o.O.} G G G F F A A G G F A F A D C C C A C C B B B V C k y , O 5 c.t.# ",
"d kXbXv ; m u.J.=X X|.#X&XOXK.L.[.K.v.f.&.Y J Y K S Y T Y K J H R F G A A A G G A A C D C C D C B V V V V V V V r e &   0 F.r.# ",
"9 jXlXz : M g.|.Y.z.3.x.x.g.g.'.|.K.z.*.| Y J J J H ) T Y F F A A C C C C A A D D D D D D D D D F C V V C C Z V u e &   0 F.H.$ ",
"q jXhXz : M 8.K.g.1.-.-.-.:.=.2.8.d.;.X.| ) W W J U  .T W J G D F A G F D D A A G F G J F J F F F F A V V Z V B k e &   6 F.H.$ ",
"i kXjXg : E 8.8.:.2.;.-.=.%.>.}  .o.&.%. .P W T ) } J H K W W W W Q Q T Y Y G G G G G F F F F F A F F F C C V Z u e & o 6 H.r.X ",
"a cXkXz , Z g.2.d.2.;.2.-.-.;.*.2.2.&.O.Q T T | T T K K W ..*.s.s.s.l.l.l.j.s.p.W K G F F G F A G F F F D C C V k e * o 7 e.H.+ ",
"a cXvXb ; M 2.J.x.d.*.&.&.*.d.1.&.X.| W W T T T W W K K U X.2.h.3.%.%.*.g.k.l.%.Y J J J J J G F A A D D C C C V u e *   7 F.`.+ ",
"d MXVX/ : m J.T.f.o.} T W X.&.&...T J J T W W T J K J ) | *.k.P.2.%.$.&.l.k.l.%.Q Q Q P J A C C F D C C C C C C B e *   7 c.r.X ",
"q cXDXb ; M l.J.O.K L J H Y T H Y J J K T W T T K J K K T ..%.%.s.s.s.f.l.j.l.s.....X.Q K J F J J G F D C C C C u r ; @ 6 0.c.# ",
"8 vXvXz ; E u.3.} I P Y Y K K G J Y W T T T Y K K T T Y Y G H H K Q ....Q W Q T Y T T W W W ....K J G G D C C A k r =   < c.H.# ",
"q bXcXv y R 3.O.| } Q W H J K Y J W | | T T J H T K K Y Y W W Q W W Y Y K K W Y K J G J K P W ..T K J G G F G A j r = o 7 0.H.X ",
"d xXcXb , S R R |  .} W H J K K Y ) } T K K J J T Y H H H K K K ) Y J L K K K K W K K H H H H H K J J J G G F G k r = o 0 F.`.X ",
"q lXxXv + y Z R O.| ..| T Y T Y W Q W J J K K J L J J Y T W W W P Y Y W W Y H T H H K Y T T Y J L L G G G G G G k y & @ 7 F.`.X ",
"q jXkXz O e h G =.X.X.#.#...} } Q T H H J J J K K K J K W } W T W K T K J K Y Y Y T T T T T Y K J J J J G H J G k y =   7 c.`.$ ",
"q hXlXz @ e j A } X.#. .#.:.=.) H H J T T H H H K J J T W W W K W T T K Y K K K K T T W ) T T Y Y H H J F L L L B u *   7 c.t.X ",
"a lXkXz O , l A T X. .P ..a.a.%.} K T T J H J Y J J T T W Y K W W T T K W K K K K P W W W W T Y T W K K K H F F k y ; @ 7 c.H.  ",
"d jXlXz @ e l F ..} T | X.=.;.*.&.&.X... .W W W K K T T Y K Y T K W W W W W P } W } } W W T T T P W W W W K J L B r * @ 5 0.H.1 ",
"d jXkXz + e k F  .} } #.$.Q Q X.&.&.=.*.p.&.} K K T P K K K T T T T T T K W W W  . .) W T T T T K T T | } } W Q A h ; @ 5 0.r.+ ",
"d hXhXg o ; j D P } X. .W W W U } }  .X.&.%.Q K T T T W W Q Q ) W W T J K T T W ..| W T T T P W T T T T } ..$.&.J k , o 5 0.0.# ",
"q -XhXf @ ; j C  .#.X.| W W  .Q P P P P } ..Q W W W W } O.*.-.*.%.O.Q W K K W W } } W W W K P W Q P K K T | O.o.J k , + 5 q.0.# ",
"d pXhXg + e B D -.=.#.&.X.W P |  .....$...%.$.| } ) Q O.;.f.g.g.g.;.&.} W W Q | W P } } W W W Y K ) W W Q Q | | G k , & 5 q.0.. ",
"d jXjXi @ , B ) *.#.#.&.;.*.=. ...| p.p.a.a.f.#.| R %.@.J.J.L.L.J.g.2.O.| | } Q W W W W W W W W T W W K T W ..#.A k , & 6 7.9.# ",
"9 hXhXd & e A X.=.&.=.;.;.a.p.a.p.h.=.a.P.Q.a.p.*.Q &.f.J.OX@XpX@XK.f.%.O.| ) T W W W W Q Q W W W P W W W Q ..X.G k , @ 6 7.9.# ",
"d hXhXa = t S X.a.a.:.:.;.:.a.a.f.:.V.~.b.A.P.>.*.-.g.h.J.&XxXAXbX@Xg.-.o.%.%.$.$.$.Q ..Q Q P P W K P W W | | X.A l , + 2 7.9.. ",
"d jXhXa & r F X.f.z.a.z.f.d.a.S.h.A.~.Q.S.h.D.V.p.-.g.J.R.&XDXAXMX6XJ.f.d.a.p.p.%.*.&.$.$. .} } W W W W } | } } A k , @ 6 7.9.X ",
"d hX7Xa & p K =.n.n.z.b.b.b.b.!.~.(.P.S.z.z.W.).Q.b.z.M.E.6XCXSXsX@XY.M.b.s.&.o. ... .....$.$.$.Q Q Q  . .} W T C j > O 5 7.9.# ",
"d hXhX9 & h K ;.n.N.n.n.n.n.A.).M.b.B.A.n.N.b.z.~.~.z.m.J.3XiXiX@X|.M.h.d.&. .K P P W W Q  ...X.$.$.$.Q  .W W T C j ; O 5 5.9.X ",
"d hXhXd & r K ;.N.I.C.M.M.B.A.(.!.Z.B.n.C.A.C.N.W.(./././.).E.z.J.m.1.2.;.&.X.Q Q Q W W W W }  . .$.$...Q P W W Z h > O < 5.9.X ",
"a hXhXa = h ..z.I.I.N.Z.Y.N.N.~.(.M.N.C.M.v.N.Z.Z.W.!./.(.M.z.g.x.f.*.a.a.d.:.=.&.#. .} W }  . .} ..X. .P P P W Z k - @ 6 5.9.X ",
"g -XhXi > u o.z.E..XU.Y..XU.G.Z.(.Y.N.C.N.C.I.XX}.Z.n.N.n.m.M.U.b.f.:.d.f.h.a.a.a.:.&.&.&.o.o...=.=.#...Q | } } A l ; @ 5 6.5.  ",
"d %X%X8 > k -.m.OX@X1XOXXXE./.(.(.Y.Z.Z.C.C.C.Z.}.U.Z.C.C.Z.U.I.M.b.b.b.b.h.f.a.a.d.f.b.b.f.2.3.;.*.#.X.X...Q Q A x e @ 7 6.5.X ",
"a %X%X8 > Z g.E.0X0X1X1X4X(.(.(.,X.XG.Y.}.Z.U.Z.Z..X}.U.Y.XX}.N.Z.Z.C.C.N.b.f.f.b.b.m.m.n.b.x.M.f.a.;.=.&.#.&.X.G x e @ 6 6.7.X ",
"a %X&X4 < S J.4XiXsXaXaXaXeX<X3X,X;X;X,XoXoXoXY.}.XX.XXXXXoXXXZ.}.Y.Y.U.C.m.m.b.m.M.Y.T.T.E.J.M.z.a.&.&.X.X.X.X.J S r @ 5 5.7.X ",
"q %X&X7 e R T.iXfXfXfXgXiX5X:XeX3X,X>X>X;X;X>X;X;XoXoX;X;XoXOXXXoX.X.X}.Z.Z.Z.U.I.T.OXOX@X,XOXL.M.b.d.d.:.-.X.| T S r O 5 6.5.X ",
"q &X&X7 < ) L.iXCXfXfXsXtX0X5X:XeX3X2X>X1X1X:X:X<X>X;X>X>X;XoX;X;XoXoXoXoX.X.XoX+X;XOXOX@X3X4XOXI.M.M.N.n.z.&...} S e @ 6 4.6.# ",
"q #X&X2 < ) |.iXCXCXfXCXmXsXqX9X9XeX2X5X>X1XyX<X5X<X2XyX>X:X;X:X>X>X;X;X;XoX;X;X1X1X2XiXgXdX4XOXU.M.n.m.n.d.:.;.| B e @ 7 4.4.X ",
"q #X#X5 e ) L.pXCXCXCXCXdXsXnXtXqXaXrX8X5X<X2X1X:X8X9X5X>X2X2X<X>X<X<X<X>X>X:X<X2X:X1XaXaX4X@XOXOXC.m.n.m.B.m.N.>.B , @ 7 +.4.X ",
"9 #X*X< p ) |.iXfX4X-XpXdXpXNXsXnXdXtXtXtX0X9X9X9X5XyXyX>X<X2X<X<X<X2X>X<X>X<X<X5X<XrXaX4X1X1X,XOXOX.XC.N.n.C.U.:.K r O 6 [ +.X ",
"q #X X% < S 8.T.@XT.#XbXlXNXsXxXnXdXdXsXnXsXtXtXtXqX9X5X2X8X5XyX5X2X<X>X<X>X<X<X<X2XrXrX<X:X:X>X+XoXoX.X.X}.U.U.z.| y + 6 [ <.X ",
"a #X#X5 % h ' 1.J.L.@X=X=XqXsXNXmXdXtXmXmXnXnXmXnXsXtX9X9X8X5X2X2X<X<X2X<X<X<X<X<X2XeX4X1X>X,X>X;X;XoX;X+XoX.XU.z.>.h & < +.<.# ",
"9 #X#X0 % y S >.r.t.*X{.*X#XuXsXmXNXmXmXmXmXmXmXnXnXtXqXqX9X9X2X8X2X<X<X2X<X<X<X2X1X2XrXeXeX,XeX,X;X;X+X;X+XoX.Xn.o.j + 2 _ +.X ",
"q #X#X< % e z ` y.y.y.{.y.y.*X7XmXNXNXmXnXnXnXnXmXsXmXtXtXtXqXqX9X8X2X5X9X9XyX<X2X:X>X2XeXeXeXeX,X>X;X+X+X+XoXXXb.X.j + 2 _ +.. ",
"0  X X% = 5 I ] e.y.y.y.y.y.y.[.wXuXuX9X5X$X+X$XtXtXtXsXtXmXnXmXqX0X0X9X9X9X9X2X<X5XyX<X4X2X3XeX;X>X:X:XoXOX.X.Xb.o.j + 7 _ +.. ",
"9 *X].2 $ e b { e.w.y.w.y.w.y.w.e.y.{.G.F.F.F.F. X:X9XtXNXNXNXmXzXnXsXtXtXtX0X0X9X0X2X5X<XyX3XeX>X:X:X:X;XXX.XXXM.&.j & 3 _ <.X ",
"q  X X< > p / { e.e.w.y.w.e.y.e.e.e.F.F.F.F.5.v.F.F. X7XmXNXNXzXmXNXNXmXmXtXtXtXtX0X9X2X9XyX2XeX2X2X<X1X;XoXoXoXm.=.h & 2 _ _ . ",
"a  X#X0 $ q n ] { { w.] { w.] w.{ { w.6.+.>.@.+.7.7.7.v. X7X7XwX7X7X7X6XwX$X5X5X$X+X+X+X+X XoXOX/.OX}.U.Z.C.C.M.n.d.h @ 8 ] +.X ",
"d ].{.# $ q I ' n n ' / n n n c ] ] ] ' b I / I ' I ' ' +.x.N.|.|. X X X|.|.[.|.}.}.}.}.}.N.J.W.N.M.B.z.z.z.a.1.:.o.Z ; < ( ` + ",
"% ].+X% = q 4 s p p p s p s 4 q s s s p 8 p p 3 h p p p t p f S ) ) ) ) ` >.>.' ) >.) ) ) ) T Q ) H S H A C Z Z B h u ; 5 <.` . ",
"w `.e.% ' . * $ # # $ # # # # # & $ # X $ $ + + @ & & = > & +   + = > < , < , , , < , < = > , ; > = > > , , > > - O = + 5 <.<.X ",
"3 #X|.% 0 > w % 7 7 4 2 4 4 4 8 7 7 3 7 7 2 6 7 4 2 2 2 0 5 5 5 2 6 7 7 3 3 7 7 7 7 7 7 7 4 7 < 3 4 4 3 5 7 7 7 0 7 0 5 < b ` + ",
"q [.( { +.9.8.4.5.6.6.,.,.,.6.6.6.6.5.6.4.4.+.4.7.7.7.5.6.<.6.6.6.6.4.<._ _ [ [ <.<.[ _ _ [ [ _ +.[ _ ` ` ` ` ` ` +.( ` / ( ) . ",
"< ` <.7.4.6.4.5.5.6.4.4.4.4.6.6.7.5.5.5.5.4.4.6._ 6.5.q.7.5.5.7.6.6.6.4.4.+.4.4.+.+.+.[ _ 4.<._ _ 4._ _ ` _ _ ` _ ` ` _ ` ' z X ",
"% 1 1 1 . # . 1 # + X X X . X X # . . X # # . # + X . . X X X . . . X + X X X . X # X . . + X . X X X . . + X . . # $ #   X X 1 "
};
