/* XPM */
static char *_648667697863[] = {
/* columns rows colors chars-per-pixel */
"64 64 256 2 ",
"   c #020102",
".  c #0B0502",
"X  c #0C0902",
"o  c #01050A",
"O  c #0C010B",
"+  c #000A0C",
"@  c #070A0B",
"#  c #140A05",
"$  c #170606",
"%  c #191309",
"&  c #000D12",
"*  c #0C0111",
"=  c #130113",
"-  c #1B011C",
";  c #1A0415",
":  c #011216",
">  c #00141B",
",  c #021A1D",
"<  c #1C1C15",
"1  c #09110D",
"2  c #260703",
"3  c #370802",
"4  c #28150A",
"5  c #37190B",
"6  c #24021B",
"7  c #211E1A",
"8  c #221C14",
"9  c #381114",
"0  c #1D2116",
"q  c #232216",
"w  c #23231A",
"e  c #2C251A",
"r  c #2C2A1C",
"t  c #2B2616",
"y  c #32291B",
"u  c #3A2915",
"i  c #011A23",
"p  c #001E2A",
"a  c #031821",
"s  c #14112A",
"d  c #2B012B",
"f  c #250224",
"g  c #390139",
"h  c #320A2F",
"j  c #01232B",
"k  c #022529",
"l  c #012533",
"z  c #012A3C",
"x  c #042D36",
"c  c #003439",
"v  c #162832",
"b  c #2A2A23",
"n  c #352C24",
"m  c #353328",
"M  c #353334",
"N  c #470A03",
"B  c #570C03",
"V  c #491507",
"C  c #591505",
"Z  c #540E14",
"A  c #680D04",
"S  c #681405",
"D  c #771506",
"F  c #720E07",
"G  c #47230E",
"H  c #4A2611",
"J  c #572A13",
"K  c #5A2C10",
"L  c #683415",
"P  c #702A10",
"I  c #490434",
"U  c #6F072F",
"Y  c #453930",
"T  c #7F3823",
"R  c #20433E",
"E  c #47453C",
"W  c #554A39",
"Q  c #774425",
"!  c #003344",
"~  c #02384A",
"^  c #043B54",
"/  c #0A3244",
"(  c #351D43",
")  c #490247",
"_  c #590158",
"`  c #510B4B",
"'  c #64015A",
"]  c #690648",
"[  c #542D52",
"{  c #690367",
"}  c #770276",
"|  c #740B6F",
" . c #733071",
".. c #5A0160",
"X. c #014449",
"o. c #024758",
"O. c #054F56",
"+. c #014B67",
"@. c #015864",
"#. c #015975",
"$. c #016777",
"%. c #01676F",
"&. c #00605F",
"*. c #4A4944",
"=. c #5B5B5D",
"-. c #58575A",
";. c #514F49",
":. c #5B615D",
">. c #5D5E60",
",. c #615E64",
"<. c #5C6263",
"1. c #6B6B6D",
"2. c #656568",
"3. c #787879",
"4. c #6D6D70",
"5. c #615F5D",
"6. c #871805",
"7. c #961605",
"8. c #8B0F0D",
"9. c #A71805",
"0. c #B51905",
"q. c #B11517",
"w. c #903111",
"e. c #B02F0F",
"r. c #9A172A",
"t. c #D01A09",
"y. c #F21C0B",
"u. c #D02D0C",
"i. c #FB2708",
"p. c #F1320F",
"a. c #DF2723",
"s. c #8D4518",
"d. c #AF4817",
"f. c #8F4D24",
"g. c #B04E28",
"h. c #876B2A",
"j. c #BB7326",
"k. c #D04A17",
"l. c #F84D17",
"z. c #F77019",
"x. c #D25229",
"c. c #F25029",
"v. c #FF772A",
"b. c #FA712D",
"n. c #D46E2F",
"m. c #890577",
"M. c #8D267D",
"N. c #847A79",
"B. c #A36E4F",
"V. c #F86E4A",
"C. c #CD6947",
"Z. c #7C827E",
"A. c #FE9739",
"S. c #F98938",
"D. c #FFA735",
"F. c #D28A30",
"G. c #FECE37",
"H. c #BDAE46",
"J. c #A28E5A",
"K. c #FB8C51",
"L. c #FCAE4D",
"P. c #FD9068",
"I. c #FFB270",
"U. c #CC8858",
"Y. c #FDC549",
"T. c #FED04F",
"R. c #FFEC56",
"E. c #FECF6F",
"W. c #FFFA6B",
"Q. c #FFF16E",
"!. c #BEA43E",
"~. c #7E0F82",
"^. c #007A87",
"/. c #016D90",
"(. c #016995",
"). c #7C7E81",
"_. c #8F0986",
"`. c #AA0894",
"'. c #91268F",
"]. c #AF14A4",
"[. c #AA2EA8",
"{. c #CB14B2",
"}. c #CC27B5",
"|. c #8F468D",
" X c #847E84",
".X c #BD4DB3",
"XX c #CD49BB",
"oX c #EB12D1",
"OX c #FB2DF3",
"+X c #E425D4",
"@X c #FF4AFC",
"#X c #FE57FB",
"$X c #F84CE8",
"%X c #FE6CF9",
"&X c #DC54CF",
"*X c #00858D",
"=X c #01899B",
"-X c #0191AD",
";X c #01AEB8",
":X c #7D8384",
">X c #0098CA",
",X c #01B2CD",
"<X c #05BAE6",
"1X c #01C5D4",
"2X c #01D0EB",
"3X c #02E8FB",
"4X c #01FEFF",
"5X c #05F7FD",
"6X c #13F9FB",
"7X c #2BFEFE",
"8X c #64FBFE",
"9X c #03C1BB",
"0X c #8B8B8C",
"qX c #9A9DA2",
"wX c #A5A6A8",
"eX c #B6B8B8",
"rX c #B0AEB1",
"tX c #A5A4A2",
"yX c #FEAF91",
"uX c #F2A796",
"iX c #BDC5A3",
"pX c #FFD592",
"aX c #FFFB99",
"sX c #FEF389",
"dX c #FFFEA6",
"fX c #FFFDB8",
"gX c #FFE1B9",
"hX c #D7C3B6",
"jX c #BCBEC3",
"kX c #FF87FD",
"lX c #FE99FE",
"zX c #FEA7FE",
"xX c #FFB9FF",
"cX c #C5BEC6",
"vX c #BDC2C3",
"bX c #ACFCFF",
"nX c #97FEFD",
"mX c #C3C4C5",
"MX c #C6C9CA",
"NX c #CBCCD2",
"BX c #CBD3D3",
"VX c #D7D7D9",
"CX c #D3CFD0",
"ZX c #E9DCDA",
"AX c #FFFCC7",
"SX c #FFFCD7",
"DX c #F8EAD6",
"FX c #F2D6F3",
"GX c #D7E9E9",
"HX c #E3E4E6",
"JX c #FEFBE5",
"KX c #FFE6FF",
"LX c #FFFEFE",
"PX c #FCFAF9",
"IX c #F3F3F3",
"UX c #DBDDE3",
/* pixels */
". y y n t w b u t w y n y t t n y y y y t y y t t y r r n y e t e e t r r t y y r r r b e y r r r r e b r t r r n r t r y w q   ",
"n BXHXHXZXVXZXGXVXVXVXHXHXVXVXZXHXHXHXVXVXZXHXGXVXVXUXHXHXGXVXNXCXMXMXBXBXMXBXCXNXMXmXmXmXcXcXjXjXeXvXmXMXmXeXeXwXeXBXrXNXCXwX< ",
"5 BXVXHXPXUXCXHXHXVXVXUXGXUXVXVXGXVXGXGXVXVXHXHXVXVXVXVXHXHXZXCXCXNXNXNXBXNXMXCXVXBXMXmXMXMXmXjXjXjXvXmXNXMXeXeXjXrXeXjXeXeX3.X ",
"r HXCX3.W ;.;.;.;.*.E ;.W W E E E W E *.E E ;.;.*.W E E Y *.*.E Y E Y E E M m b M m n n m m n b r r r t b b t r 7 < < b b 3.4.X ",
"r VXVX;.C w.T P w.s.f.h.h.h.J.Z.0XJ.Q h.Q Q s.s.s.w.w.P S C B V 5 N V V V G 5 2 . .   . .       o o o   o o   k c 1 1   < 0XqX  ",
"n BXBX;.1.U.C.C.j.B.!.H.H.H.iXiXiXH.H.H.!.F.j.j.k.d.e.D S N N N 3 3 3 2 3 G C K 3 2 $ $ .   o +   o + o o o o X.&.,   . b :X0X. ",
"t HXHXE N.hXDXJXJXDXDXfXdXfXfXJXSXaXW.R.G.G.D.D.S.k.0.6.A B C B N 3 2 2 3 V P w.P C 3 2 2 # O 1 : : a & : : : @.$.X.O : q :X XX ",
"m VXZXE N.tXDXDXPXPXPXLXLXPXPXPXPXfXaXR.R.G.D.D.z.l.e.6.S C N N 3 3 2 3 2 3 C P f.P V 2 9 < , s , > p i j i i %.^.X.+   q 3. X. ",
"n BXVX;.w.g.K.K.I.pXAXJXLXLXLXLXLXPXfXW.R.T.Y.D.v.l.e.6.A N 3 3 2 2 $ 2 9 N C f..XB.L C e 7 v p p l l p k j c ^.*Xc : o w ).3.. ",
"e BXVXE K e.z.S.L.T.Q.dXSXPXLXLXLXLXSXdXR.G.L.L.v.z.u.7.D B N 3 2 $ 2 2 N N F f.U.K.z.d.J v v s z z ! z ! x ~ *X*XX.> o 0 :XN.X ",
"t BXUXY C w.l.z.D.T.Q.aXAXJXLXLXPXLXLXJXaXT.Y.D.v.l.u.7.6.B N 3 2 $ $ 3 V B D w.k.z.F.n.f.h / ( ~ ! ~ ! ! ! o.-X=XX., & < ).).X ",
"y VXVX*.S w.c.b.D.E.dXfXAXSXPXLXPXJXJXPXJXsXT.A.v.l.u.0.7.D C 3 2 2 2 2 N C D 6.k.z.F.j.W / / ^ ~ ^ ~ ~ ! ! %.;X=X~ k & 4 3.0X. ",
"e CXCXY P w.a.z.L.sXAXfXfXAXJXPXJXfXdXSXPXDXpXA.b.l.p.t.9.6.A N 3 2 2 2 3 A D 6.e.k.g.f.R ( R ^ ~ ^ o.^ ~ ^ ^.,X=X! l > < :X0X. ",
"e MXMXm S e.k.b.E.fXAXaXsXaXfXJXSXdXW.sXfXSXgXI.z.p.p.u.t.9.6.A N 2 2 2 3 N S S P L Y M R / R / ^ ^ ^ o.^ #.-X2X^.~ l & q :X:XX ",
"t mXMXM P w.k.b.pXdXaXW.W.W.W.SXSXdXR.R.E.gXDXyXb.l.i.y.t.0.7.S N 2 2 2 2 3 C Z J J M M ( o.o.^ ^ +.+.#.(.(.1X3X-X+.! > 8 :XN.X ",
"y CXMXM S 7.x.K.pXaXQ.R.W.W.W.dXSXfXQ.T.D.E.pXpXP.b.i.y.t.0.9.F N 3 2 2 2 2 5 9 9 n v ( ^ / o.o.+.+.(.-X>X2X5X5X<X(.o.i q 3.0X1 ",
"y VXvXE K D c.P.E.L.L.R.W.W.W.sXAXdXQ.Y.L.A.L.I.yXP.p.i.u.q.7.A N 3 $ $ $ $ 4 6 7 b v / / ~ ^ +.#.(.>X<X3X5X6X4X3X2X/.~ t 0X:XX ",
"r ZXVXE C w.b.P.V.S.D.Y.R.R.R.Q.fXdXQ.L.A.v.b.K.yXyXV.p.u.9.6.B N 2 $ . . # # < s v v v ^ ^ ^ #.(.>X2X5X7XbXGXnX6X5X;X&.q Z.J.1 ",
"y HXUXE Z f.V.V.u.k.b.A.L.Y.L.Y.sXsXE.L.S.b.l.z.P.yXP.x.0.6.S V 2 2 . . . o @ : a v x z ! ^ +.#.(.2X3X5XbXLXLXLX8X4X1X%.7 3.).o ",
"r VXZXE N g.V.g.P e.k.b.S.S.A.A.I.E.E.L.b.p.l.p.c.P.P.k.e.D C 5 2 . . .   o + : a p l z ! ~ +.(.>X3X5X7XLXPXPXPXnX4X;X&.w 3.:Xo ",
"b BXVXE Z g.V.r.S D w.d.k.b.l.b.K.I.L.A.x.0.e.u.u.x.n.k.e.P V 2 $ . . .   o + : a p l x ! ~ +.(.<X3X4X8XLXLXLXLXIX6X;X@.w ).0X  ",
"y BXBXE C g.x.D C C S P e.e.u.u.n.I.L.K.x.6.6.6.e.e.k.k.d.P G 2 $         o + : i p l x ! ! +.(.<X5X4XnXLXLXLXLXPX7X9X%.8 ).3.. ",
"y BXBX*.C w.x.F B A S S S D 6.6.f.U.F.F.d.A S S P P w.d.s.w.K 3 #       o o o > i p p l ! ! +./.<X5X5X8XLXLXLXLXnX6X9X&.< N.:XX ",
"t CXNXE Z w.r.F D F S S S S A B s.U.U.n.w.B V N B K w.s.w.s.L 5 $       o o & > i p l l l ! o./.>X3X4X7XnXIXIXbX7X4X;X@.8 0X0X. ",
"y vXMXM B F 7.7.7.7.7.D F A B N J f.n.j.w.C B N 3 V K P s.w.L H 4 .       o & & i i p z l ! ^ #.-X2X4X4X6X7X7X6X4X4X,X~ q 0X XX ",
"t NXMXm V D 0.9.0.0.0.7.D A N N 3 T g.e.w.D A A N V B K P P L K 5 $ .     o & & i i p l l l ^ +.(.,X3X5X4X5X4X4X4X5X;X~ q 3.0XX ",
"t MXNXn V D t.u.u.y.t.0.7.F B 3 3 K e.d.w.7.7.6.A C V V K L L P G 4 # .   o + & > i p l l l ! ^ #.-X,X2X5X5X5X4X4X2X=Xc < 3.3.. ",
"y mXBXY N 8.t.c.uXuXc.t.9.8.Z N N D e.k.u.t.t.0.7.S B C V K L K H 5 $ X   o o & > > p j p l z ! ^ (.-X,X2X2X3X5X3X1X^.x w ).Z.. ",
"y MXNXM B 7.p.yXLXDXV.t.0.8.B B B 6.k.k.p.y.i.y.t.7.D B 5 G K L L G 4 # . o o + & > i p p l l ! ! ^ #./.;X,X,X2X2X,X%.k 7 ).).. ",
"r vXMXm B 7.p.S.yXuXc.t.0.F B B B 7.a.l.i.i.p.p.p.u.6.B 3 V G L L K u % X     + & & a p p p l l ! ! ^ @./.=X;X,X2X,X@., 7 3.).. ",
"e jXjXm V 8.y.l.p.i.i.t.7.F B B A 9.k.l.i.i.b.b.z.p.0.A V 5 5 K K K J 5 # X   o + & > > i p j l l z ! ! +.$.*X;X1X;X@., 7 4.3.. ",
"e MXcXm N 6.u.p.p.i.t.0.8.A N N F 9.p.p.i.l.V.yXz.l.0.B N 2 4 G K L K 5 4 X   o o o & > > i p p j l l z ! o.^.=X,X;X@.i 7 4.3.X ",
"r vXmXn 3 D 0.t.t.t.0.7.F N N N F 9.a.y.y.c.V.V.l.p.9.F 3 2 2 5 H K L H 5 % O o   + + & & : i i p j p p l ~ &.^.;X,X@.k < 4.4.X ",
"r vXvXn 3 A 7.9.9.9.7.F B 3 2 3 S 7.t.y.y.y.c.a.p.t.9.A 3 $ # 2 G H J H 5 % .     o o + & : > > > i a > p c O.^.-X,X%.k q 1.4.X ",
"r mXmXn 2 N F 6.D D A N 3 $ 2 2 V F q.y.y.a.y.y.y.t.7.B 3 # . # 4 5 J J G 5 % .       o o + + & > : > & : k ~ %.=X1X$.k q 1.1.X ",
"r mXmXr 2 3 B B B B N 3 2 ; 2 6 3 U r.a.a.a.y.a.t.q.D B 2 # . . $ 5 H J H 5 4 #         o o + + o & + & : : c @.*X1X*Xk w 1.4.X ",
"r mXmXr $ 2 3 3 3 3 2 2 = ; 6 f I Z U r.r.q.q.q.r.8.Z N 2 $ .   O 4 5 H H G 4 % . o     o     o o o o o o & k O.$.,X^.k 0 4.1.X ",
"r mXmXb . . 2 2 2 2 $ 6 - f f d I I U U r.r.r.r.U F Z 6 ; # o   . $ 4 G J H 5 4 X .               o   o   + k X.$.;X*Xk w 4.4.X ",
"r vXMXr .   . $ $ ; 6 6 d d g ) ) ) _ ] ] U ] U U I g 6 ; O O . . . 4 5 H H 5 4 # X                       + , c %.=X*Xc < 1.4.X ",
"r vXmXr .   . . $ = f d g ) ) _ _ _ ' ' ' ' ] U I I I 6 - = O O o O $ 4 G J G 5 # .                         : c @.*X*Xc 7 1.4.X ",
"n vXjXb     . O = 6 d g ) ....{ { { ' ' { ' _ ) I I ) g - h h <   . . $ 5 H H 5 4 $ @                       1 k O.^.$.c r 2.1.X ",
"r eXjXw     O O - d g _ _ { { } } } } { { ' ' ' ) ) I d ` [ [ h . . O # 4 5 G u 4 $ .                       1 k O.$.%.c 0 1.2.X ",
"r eXeXr   o O = d g ) _ { } } } } } } } } ' ' ' ` _ g Y  .|.[ s O o o . 4 5 G G 5 % X                       + , X.%.&.k q 1.4.X ",
"r eXeXq   . = - d g _ ..{ } ~.} m._._._._.`.`.m.m.' _ M.|.,.` - = O O . % 4 5 G 5 4 #                       + , ~ @.@.k 0 2.2.. ",
"r eXrXw   O = f g ) ....} } ~.} _.`.{.{.oX+X{.{.`.m.'.[.~.[ d - ; O . . . % 5 5 5 4 #                       + , c @.O.j q 2.1.. ",
"t eXrXw   . - f g _ ..{ { } } _.`.{.+X$X$X#XOXOXoX}..X|.[ g g f - = O o O $ % 5 4 4 4 # .                     , c O.O.k 0 2.2.X ",
"t rXrXw o O = d g ) ..| } } m.`.{.+X%XlXxXzXkX#X@X$XXX'.` ) g f f - O .   O # 4 4 u 5 t % .                   : x o.X.k 0 ,.2.X ",
"e wXwX<   O - d g ` { _._._._.{.OX#XzXKXPXLXFXzXkX%X}.m._ ) g d f - O O . . # 4 H J L H 5 # .               o : x O.O.l 0 =.2.. ",
"q wXqX8 o O - d g ` { ~.[.].}.+X@XkXKXLXLXLXKXFXlX@XoX_.{ ` g d f - * * .   $ 8 L s.f.Q H 4 X               o & x O.X.k w >.<.. ",
"e wXtX8 o O - d g ) _ { ~.'.{.OX#XzXKXLXLXLXPXKXzX@XoX`.} .._ ) g f * O o . $ 5 L f.f.f.K 5 #                 & k X.X.k q >.<.. ",
"t wXwX< . O 6 d ) ) _ _ { _.].OX#XxXLXLXLXLXPXLXxX#XOX}.].'.~.| g d = . o   $ 5 Q f.f.f.J t X               o + k c c k q =.<.X ",
"t wXwXq   = - d g ` _ _ ' } {.oX@XxXLXLXLXLXLXKXzX#XOX+XXX[.'. .g d = O .   $ 4 J L Q L H % .                 + , c c i 8 =.=.. ",
"t wXtX0 . . - d g ) _ _ { } `.oXOXkXKXLXLXLXPXKXlX#X+X{.].'.{ I g f * O .     $ 4 G H G 4 # .                 o , k k > q =.=.. ",
"t qXqX0   O - d g ) _ _ { } `.oXOX@XzXKXPXPXPXKXkX$X{.`.{ _ ) g h f = * .     . # 4 4 % # .                   o & , k : q =.>.. ",
"q qXqX% o O - f ) ) _ _ { { _.{.OXOX%XlXxXFXKXKXkX+X{.m.' _ ) ) d - = O         . . X @ .                     o + , , : 7 >.=.X ",
"t qXqX4   O - f d ) _ { { } _.{.OXOXOX@X%XkXlXFXkX&X'.M.{ _ ) g d - * O                                         & , , : q >.=.X ",
"t qXwXr o . ; f h ) ......{ ].+X+X+XoXoXOX#XkXkXkX.X'.| _ ) ) g f - O o                 . . . .                 o k X., r =.<.  ",
"y 0XqXX   * = - d ) ) _ | ].}.XX].`.`.{.{.XX&X&X%X&X'.| _ ) g d - = O .                 X % % % # .             @ k &.k 0 ;.-.# ",
"% qXqX8 o O   = - d d ) ~.'.'.~._ _ _ ' |  .M.|..X[. .` ) h d - = O o               . . % 4 4 4 # X             & : O., 0 =.-.. ",
"u Z.Z.% *.o   @ * - f g ) ) ( ( d d d h d h h M [ [ ( f - - = $ O                     X # 4 4 $ # X X       . o 1   , @ < <.<.. ",
"% rX0X% t % m < w < < w v 0 0 7 q < 0 < < < < q 0 b q 0 w < < < w q 8 < 7 7 7 7 w < 7 0 w w w 0 q w < < 0 0 0 0 0 0 0 8 w *.-.@ ",
"r 0X-.2.2.4.2.2.1.2.<.<.:.>.1.4.1.2.1.2.2.2.2.,.<.4.1.1.1.1.1.1.2.2.2.2.5.<.>.5.5.5.5.=.>.=.>.=.:.=.=.-.-.-.=.-.-.:.-.-.;.*.;.. ",
"% -.:.2.1.2.2.1.1.1.1.<.,.2.2.<.4.1.2.1.2.2.2.<.2.1.2.1.2.<.1.2.2.2.2.2.<.2.2.<.<.:.>.<.>.>.5.=.,.>.5.=.-.-.-.=.=.-.-.=.-.*.M @ ",
". X # o . . . @ . X # . . X X 1 X X X # # X . . . . . % X . # X . . X . . X . . X . . X . X X X X X X . X X . . X . @ X . X X @ "
};
